<?xml version="1.0" encoding="UTF-8"?>
<svg id="Layer_1" xmlns="http://www.w3.org/2000/svg" version="1.1" viewBox="0 0 4000 4000">
  <!-- Generator: Adobe Illustrator 29.8.2, SVG Export Plug-In . SVG Version: 2.1.1 Build 3)  -->
  <defs>
    <style>
      .st0 {
        fill: #f7a623;
      }

      .st1 {
        fill: #ff765f;
      }

      .st2 {
        fill: #6db3f2;
      }

      .st3 {
        opacity: .6;
      }

      .st4 {
        fill: #fed1da;
      }

      .st5 {
        fill: #fff;
      }

      .st6 {
        fill: #f3c456;
      }

      .st7 {
        fill: #fb718e;
      }

      .st8 {
        fill: #fda4b5;
      }

      .st9 {
        display: none;
      }

      .st10 {
        fill: #682942;
      }

      .st11 {
        fill: #591428;
      }

      .st12 {
        opacity: .5;
      }

      .st13 {
        opacity: .35;
      }
    </style>
  </defs>
  <g>
    <g class="st9">
      <path class="st2" d="M1038.67,2325.28c141.88,11.22,281.95,46.69,415.48,95.17,19.37,7.38,40.6,16.15,59.99,23.83,12.82,5.69,45.9,20.59,59.03,26.49,12.82,6.56,45.34,22.75,57.84,29.37,12.63,7.16,43.66,24.96,56.5,32.27,32.81,20.21,5.4,68.79-28.99,50.73-13.35-8.56-41.89-27.39-54.81-35.8-11.47-6.9-41.72-24.56-53.77-31.71-12.52-6.72-43.15-23.15-55.19-29.57-11.77-5.72-44.28-21.37-56.53-27.27-75.75-34.74-156.11-64.68-235.97-89-53.87-16.27-108.47-30.77-163.88-41.96-.71-.12-1.19-.81-1.04-1.52.13-.64.71-1.07,1.35-1.03h0Z"/>
    </g>
    <g class="st9">
      <path class="st2" d="M1549.87,2532.27c-148.57-18.64-296.89-38.69-444.32-64.59,74.37,7.75,148.87,13.63,223.4,18.89,74.54,5.16,149.2,9.7,223.72,13.48,22.01,1.87,19.32,34.15-2.8,32.22h0Z"/>
    </g>
    <g class="st9">
      <path class="st2" d="M1588,2492.5c-67.57-78.06-150.96-142.76-239.16-196.36-29.72-18.32-60.73-34.35-91.92-50.06,32.36,13.29,64.67,26.95,95.82,42.98,78.71,39.43,153.22,87.98,220.2,145.34,13.5,11.78,26.44,23.4,39.5,36.91,15.04,16.61-9.99,38.52-24.44,21.18h0Z"/>
    </g>
  </g>
  <g class="st12">
    <path class="st8" d="M1852.09,2961.9s-473.64-657.67-884.91-502.87c-359.25,135.22-94.11,877.01,884.91,502.87Z"/>
  </g>
  <path class="st7" d="M789.04,2633.42c15.29-93.58,76.51-166.99,167.97-201.42,100.68-37.89,212.53-33.39,332.44,13.39,93.47,36.46,192.11,98.73,293.17,185.06,170.5,145.65,287.99,307.73,292.91,314.56,5.24,7.28,6.8,16.57,4.23,25.16-2.57,8.59-8.98,15.5-17.36,18.7-184.82,70.63-355.34,106.28-507.9,106.28-21.03,0-41.71-.68-62.05-2.04-143.78-9.58-268.03-53.98-359.31-128.38-107.9-87.94-163.11-214.9-144.09-331.32"/>
  <path class="st4" d="M846.05,2642.74c-15.7,96.08,31.66,202.31,123.58,277.23,85.42,69.62,335.45,208.77,835.84,28.43-86.81-110.47-402.93-484.02-707.02-484.02-40.79,0-81.32,6.71-121.09,21.68-72.64,27.34-119.27,82.98-131.31,156.67"/>
  <g>
    <path class="st2" d="M2685.83,2193.9c-106.72,91.2-203.49,194.92-287.44,307.26-7.93,11.11-28.77,40.3-36.43,51.12-7.44,11.38-26.54,40.78-34.14,52.48-7,11.9-25.05,41.96-31.86,53.68-6.9,12.96-22.92,43.08-29.94,56.24-19.19,33.39-68.61,7.45-51.58-27.47,8.12-13.59,26.93-43.95,34.86-57,7.71-11.64,28.33-41.53,36.56-53.59,8.81-11.71,30.48-40.43,38.99-51.64,13.35-16.11,27.66-33.94,41.11-49.77,55.86-64.03,117.46-125.68,182.27-180.82,32.55-27.58,66-54.09,100.82-78.71,11.56-8.25,23.29-16.24,35.28-23.87.6-.38,1.4-.21,1.78.39.36.57.22,1.29-.28,1.7h0Z"/>
    <path class="st2" d="M2317.97,2592.38c126.93-78.68,253.29-158.69,376.28-243.56-58.24,46.91-117.68,92.4-177.49,137.37-59.88,44.9-120.09,89.27-180.88,133.13-18.28,12.39-36.49-14.76-17.92-26.93h.01Z"/>
    <path class="st2" d="M2251.71,2596.01c40.5-135.73,113.99-259.48,203.2-368.56-9.74,14.53-19.91,28.73-29.25,43.47-46.89,73.05-85.87,151.47-114.49,233.33-11.2,32.02-21.45,66.14-27.93,99.04-4.88,21.58-36.59,14.44-31.53-7.29h0Z"/>
    <g class="st12">
      <path class="st8" d="M2033.83,2897.89s98.58-804.45,533.58-866.73c379.98-54.4,504.65,723.42-533.58,866.73h0Z"/>
    </g>
    <path class="st7" d="M2033.83,2926.77c-7.53,0-14.82-2.95-20.26-8.31-6.39-6.29-9.49-15.19-8.4-24.09,1.02-8.35,25.98-206.98,105.32-416.72,47.03-124.32,103.51-226.37,167.89-303.33,82.59-98.73,178.45-156.51,284.95-171.76,96.72-13.87,185.73,21.03,244.18,95.69,72.71,92.9,85.42,230.75,33.18,359.77-44.2,109.16-131.74,207.88-253.15,285.49-141.77,90.63-326.74,152.19-549.76,182.97-1.32.19-2.64.27-3.95.27v.02h0ZM2605.16,2057.3c-10.99,0-22.21.81-33.65,2.45-355.71,50.92-477.32,646.66-503.31,803.87,525.41-82.79,677.59-325.11,718.95-427.26,44.51-109.92,34.88-225.82-25.13-302.49-39.17-50.04-94.03-76.57-156.87-76.57h.01Z"/>
  </g>
  <g>
    <path class="st6" d="M2006.11,3413.82s47.74,119.58,91.21,195.01c43.46,75.38,143.41,3.65,143.41,3.65,93.81-14.92,84.84-68.87,71.33-99.42-5.69-12.85-12.15-21.6-12.15-21.6,82.67-30.75,127.62-78.14,149.84-129.7,4.16-9.71,7.58-19.6,10.27-29.52,31.22-116.03-33.75-240.76-33.75-240.76l-357.18,274.06-62.97,48.28h-.01Z"/>
    <path class="st0" d="M2006.11,3413.82s47.74,119.58,91.21,195.01c43.46,75.38,143.41,3.65,143.41,3.65,93.81-14.92,84.84-68.87,71.33-99.42,0,0-18.5,44.47-74.05,50.02-55.6,5.56-87.77-35.2-75.42-61.98,12.35-26.77,82.78,13.91,135.86-17.26,37.23-21.87,108.11-68.82,151.3-122.1,4.16-9.71,7.58-19.6,10.27-29.52-43.14,58.56-142.56,152.87-307.28,88.28,0,0-40.23-32.39-83.66-54.98l-62.97,48.28v.02h0Z"/>
    <path class="st11" d="M2328.49,3509.69c-51.18,13.76-105.58,16.21-157.11,3.4-17.03-4.11-33.33-11.07-48.77-18.97-5.92-3.03-8.27-10.29-5.24-16.21,2.88-5.66,9.55-7.93,15.25-5.72,57.37,19.53,121.56,9.84,176.1-14.04,37.09-16.5,58.44,38.9,19.77,51.54h0Z"/>
    <path class="st11" d="M2155.97,3670.9c-7.19,0-14.44-.68-21.65-2.24-25.69-5.55-46.75-21.48-60.92-46.08-43.92-76.24-90.95-193.54-92.93-198.49-4.59-11.48-.98-24.61,8.83-32.14l420.15-322.39c6.47-4.97,14.81-6.8,22.77-5.05,7.96,1.77,14.74,6.96,18.51,14.19,3.23,6.21,78.6,153.46,27.95,285.16-23.76,61.78-70.75,109.2-139.91,141.29,8.26,20.03,14.28,47.33,3.37,74.03-12.56,30.73-43.12,50.73-90.9,59.5-14.74,9.59-53.92,32.22-95.27,32.22h0ZM2039.65,3422.89c15.23,36.54,49.88,117.1,81.59,172.14,6.42,11.13,14.25,17.38,24.66,19.66,27.61,6.04,66.24-15.76,78.78-24.67,3.47-2.46,7.51-4.13,11.72-4.79,30.1-4.78,49.52-14.34,54.66-26.93,7.03-17.19-8.97-44.57-13.31-50.42-5.16-6.97-6.75-15.96-4.28-24.28s8.71-14.99,16.84-18.01c69.68-25.91,115.69-66.72,136.77-121.3,29.53-76.46,5.05-164.07-12.11-209.37l-375.31,287.98h0Z"/>
  </g>
  <g>
    <path class="st5" d="M1549.28,3091.74s-196.16,44.21-356.97,67.71c0,0,143.68,122.39,228.03,164.33,84.35,41.93,128.94-232.04,128.94-232.04Z"/>
    <path class="st11" d="M1437.74,3355.78c-9.92,0-19.9-2.43-29.69-7.29-86.39-42.94-227.67-162.94-233.65-168.03-8.25-7.03-11.62-18.23-8.63-28.64,3-10.42,11.81-18.11,22.53-19.68,157.88-23.08,352.94-66.89,354.89-67.33,8.94-2.02,18.31.54,24.99,6.83,6.68,6.28,9.79,15.47,8.32,24.53-5.82,35.74-38.42,215.85-109.39,252.27-9.54,4.89-19.43,7.34-29.38,7.34h.01ZM1257.4,3177.17c48.56,38.86,124.11,96.48,175.22,121.9,4.24,2.1,6.37,1.76,9.3.26,28.28-14.5,56.6-100.05,72.34-171.7-55.07,11.8-157.43,32.98-256.86,49.54Z"/>
  </g>
  <g>
    <path class="st6" d="M2362.55,2733.65c8.67,47.6,52.36,80.89,100.68,78.51,326.05-16.05,565.69-325.09,566.24-396.29.59-75.63-94.63-100.7-94.63-100.7,0,0-3.29-50.46-61.18-62.62-57.65-12.11-116.39,63.15-116.39,63.15-99.22-52.77-113.26,80.46-113.26,80.46-76.06,78.28-259.89,200.29-259.89,200.29,0,0-17.36,40.78-23.15,103.59-1.09,11.78-.34,23.06,1.58,33.62h0Z"/>
    <path class="st0" d="M2757.78,2375.09s61.69-56.66,92.02,8.52c4.95,10.65,14.71,18.37,26.12,21.1,29.59,7.1,79.94,26.07,58.94,70.67-19.16,40.7-58.34,50.24-82.83,52.01-12.43.9-24.71-3.08-34.48-10.83-20.16-15.99-55.76-44.52-66.59-64.31-14.17-25.88-17.03-64.65,6.81-77.16h.01Z"/>
    <path class="st11" d="M2348.75,2597.38c48.34-34.08,96.48-69.33,143.44-105.37,45.86-35.61,93.42-72.53,134.01-113.16l-6.89,14.7c2.12-16.72,6.04-32.3,12.11-48.07,23.6-62.92,78.36-84.43,137.52-51.71l-31.24,6.64c6.95-8.63,14.2-16.33,22.04-23.93,28.88-27.43,65.9-52.78,108.18-49.75,43.46,3.13,84.12,36.52,90.92,80.63.38,1.81.6,4.36.79,6.18.02.04-18.46-22.4-18.46-22.39,11.49,3.15,21.23,7.06,31.83,11.97,46.91,20.84,87.95,66.9,81.52,121.48-11.91,62.73-72.29,132.11-114.56,177.64-111.49,115.73-257.21,204.74-418.15,228.5-40.34,5.49-81.56,6.02-121.68-.32-10.32-1.63-17.36-11.32-15.73-21.64,1.44-9.11,9.15-15.66,18.04-15.96,75.31-2.3,149.73-12.33,220.45-38.8,105.76-39.04,201.18-106.66,279.49-187.78,26.09-27.24,50.36-56.4,70.83-87.14,12.98-20.87,26.59-40.58,30.56-63.59.82-39.79-40.62-65.24-75.24-76.32,0,0-18.47-22.43-18.46-22.4-1.41-10.23-8.47-23.62-18.37-30.21-9.99-7.03-24.12-11.86-36.92-10.08-29.17,4.55-58.75,31.47-78.08,54.68-7.57,9.51-20.72,11.97-31.08,6.44-10.56-5.63-21.28-9.24-29.87-9.43-29.45-.15-40.15,37.34-45.65,62.04l-.81,4.54c-.6,6.83-2.52,14.03-7.46,18.68-22.18,22.61-45.23,42.19-68.54,61.63-46.51,38.49-94.39,74.69-142.9,110.37-24.23,17.76-48.45,35.25-73.16,52.62-27.15,18.03-55.1-20.87-28.46-40.72h0l-.02.03h0Z"/>
    <path class="st11" d="M2458.34,2839.61c-45.22,6.19-104.3-24.3-97.36-76.07.35-4.74,6.94-6.48,9.6-2.63,6.04,8.11,10.9,15.89,17.38,20.9,17.74,16.22,43.71,17.34,66.76,15.86,26.99-.67,30.22,37.97,3.61,41.93h.01Z"/>
  </g>
  <g>
    <path class="st6" d="M1458.71,3564.53c19.88,86,93.54,63.12,93.54,63.12,30.64,5.12,62.74-1.96,62.74-1.96,0,0,86.51,55.06,211.5,34.67,124.94-20.38,172.75-199,172.75-199,0,0,204.58-12.85,347.62-145.65,34.89-32.36,66.1-71.83,89.81-119.97,16.11-32.65,26.99-65.69,33.68-98.42,14.69-71.42,9.58-141.82-4.85-205.48-16.47-72.75-45.12-136.66-70.36-183.36v-.05c-27-49.99-50.09-80.22-50.09-80.22l-704.95,167.55c-23.61,20.47-40.81,49.75-53.06,82.52-33.02,88.27-29.91,202.16-17.56,239.82.93,2.94,1.96,5.37,2.99,7.35,10.93,20.37,35.75,80.37,32.13,130.74-1.21,16.79-5.56,32.48-14.73,45.27-12.55,17.73-34.15,29.88-69.05,31.58-135.69,6.72-82.07,145.47-62.13,231.46l.02.03h0Z"/>
    <path class="st0" d="M1956,3534.44s-33.31,107.9-207.45,73.55c-174.14-34.35-201.25-190.5-201.25-190.5l-45.35-14.5s23.53,179.32,103.74,220.14c80.21,40.83,110.19,58.48,185.74,41.9,75.55-16.57,165.4-76.75,164.2-133.62"/>
    <path class="st11" d="M1589.88,3301.49c93.69,84.44,249.03,165.85,414.87,144.17,160.31-20.98,268.83-66.82,342.11-129.94,37.02-31.91,65.84-71.15,89.61-119.57.07-.13.14-.26.21-.39.16-.31.29-.63.45-.94,16.3-33.45,30.23-71.22,42.7-114.09,0,0-2.95,6.16-9.46,16.61-32.27,51.67-152.53,207.5-437.02,224.66-178.97,10.77-327.67-27.15-428.73-65.78-1.21,16.79-5.56,32.48-14.73,45.27h0Z"/>
    <path class="st11" d="M1569.48,3118.12c162.14,69.88,401.9,124.28,666.85,21.1,76.03-29.61,142.15-81.17,185.7-150.17,17.37-27.53,32.92-59.88,43.48-97.19-16.47-72.75-45.12-136.66-70.36-183.36,0,0,15.83,133.42-155.87,225.01-140.44,74.87-491.13,112.74-652.23-55.2-33.02,88.27-29.91,202.16-17.56,239.82h0Z"/>
    <path class="st11" d="M1781.91,3413.73c-75.45-19.13-142.48-69.99-181.78-137.18l-8.68-15.93c-5.3-9.29-10.26-23.32-14.73-33.13-13.24-33.99,35.5-54.83,50.86-21.62,3.88,9.84,7.29,22.8,11.7,32.3,1.25,2.77,6.69,14.68,7.76,17.11,2.68,4.65,6.67,11.6,9.34,16.29.87,1.69,2.87,4.85,4.03,6.35,5.02,7.46,12.25,17.49,18.16,24.09,2.79,3.56,6.91,8.12,10.16,11.25,27.82,29.15,63.36,52.17,101.66,65.22,23.16,6.49,15.11,40.13-8.47,35.24h-.01Z"/>
    <path class="st11" d="M1621.41,3654.8c-41.76-28.8-69.91-76.87-78.28-126.48-1.97-11.37,13.94-16.45,18.94-6.15,17.32,39.49,48.68,69.99,83.76,93.97,25.28,17.09,1.75,54.23-24.42,38.66h0Z"/>
    <path class="st11" d="M2359.28,2617.34c195.66,247.29,218.91,603.15-76.91,781.96-85.78,51.02-182.37,80.69-281.39,89.61l24.93-20.41c-6.24,21.87-14.13,41.83-23.48,62.34-28.82,61.41-71.75,121.88-137.87,147.54-81.13,27.74-190.59,13.44-264.37-29.39l20.75,3.66c-3.82.8-6.39,1.22-9.48,1.71-21.37,3.15-41.82,3.97-63.76.53l12.72-.87c-44.38,12.81-93.25-4.95-114.87-46.65-6.48-11.35-10.59-24.76-13.88-37.19-14.2-64.51-45.39-142.07-15.37-207.45,13.86-29.86,46.07-48.87,77.01-54.16,16.57-3.37,36.32-2.34,51.92-7.53,59.06-19.61,23.08-122.73,2.69-163.03-14.52-32.67-14.11-70.33-14.64-104.41,2.08-89.24,19.28-195.35,88.75-258.68,28.15-23.29,63.13,16.14,36.65,41.27-42.57,38.83-58.1,100.94-65.96,157.02-5.16,43.64-7.31,90.78,2.14,133.32.63,2.51,1.14,3.83,1.91,5.76,6.3,12.02,11.48,24.27,16,36.41,16.15,45.48,28.56,96.82,12.03,144.94-14.54,42.98-57.77,65.34-100.61,66.83-21.75,1.34-48.32,5.53-58.48,26.92-6.06,11.88-7.64,29.83-6.2,48.62,3.37,40.55,16.29,80.66,25.94,121.67,6.5,27.02,18.37,44.02,43.77,45.11,4.6.25,10.92-.54,14.85-1.47l12.72-.87c16.36,2.61,35.7,1.52,52.29-1.7,8.42-1.82,16.21.56,22.93,4.93l2.83,1.55c56.58,29.29,123.02,37.75,185.71,28.09,44.04-6.95,77.25-36.93,103.77-75.69,15.96-23.46,29.07-49.94,39.29-76.71,3.24-8.4,6.64-18.4,9-26.69,3.05-11.51,12.97-19.37,24.18-20.35,22.05-1.94,45.07-6.01,66.93-10.66,160-34.2,310.9-123.84,366.69-284.77,51.45-146.93,4.21-306.86-65.34-439.86-10.48-20.39-22.26-40.74-34.51-59.98-11.8-18.57,13.9-38.25,28.74-21.27h-.02Z"/>
  </g>
  <g>
    <path class="st6" d="M1409.93,3257.18c57.43,160.35,193.78,244.3,281.66,85.41,0,0,37.83,13.06,57.61-9.93,8.1-9.38,13.19-24.93,11.3-49.9-6.39-85.82-48.18-225.57,8.48-323.08l96.76-135.82-257.02-133.67s-170.49,51.7-219.03,330.96c-14.59,83.98-4.49,167.05,20.24,236.02h0Z"/>
    <path class="st0" d="M1409.93,3257.18c57.43,160.35,193.78,244.3,281.66,85.41,0,0,37.83,13.06,57.61-9.93,0,0-12.71-54.53-58.94-58.78-46.22-4.26-54.38,34.45-94.31,64.84-39.98,30.4-115.31,48.87-179.3-69.81-2.4-4.43-4.62-8.37-6.72-11.72h0Z"/>
    <path class="st11" d="M1615.91,2714c-36.82,14.23-68.38,40.3-94.81,69.24-55.68,61.47-87.5,144.09-103.35,225.02-18.2,81.52-11.27,168.09,17.59,246.12,21.5,55.46,53.98,111.5,106.62,139.17,56.63,29.09,101.95-14.87,127.87-62.96l29.84-11.46c7.88,2.51,23.02,3.79,29.18-1.32,6.73-6.4,7.45-19.39,7.07-30.39-.46-8.58-1.29-17.26-2.31-25.85-11.49-98.72-39.4-221.73,20.99-310.21,10.77-16.2,35.85-3.78,29.49,14.58-2.77,8.53-7.17,17.12-9.36,25.83l-3.63,12.01c-.82,4.33-3.1,14.44-4.01,18.54-8.56,50.22-4.78,99.64,2.91,150.88,4.56,32.99,13.26,78.77,15.38,111.76,5.13,60.16-35.86,99.03-96.82,82.65-1.23-.34-3.86-1.12-5.09-1.53l29.84-11.46c-59.19,110.58-164.33,132.88-252.43,38.18-79.07-88.66-108.29-209.95-101.66-325.87,1.53-33.66,9.93-69.21,16.9-101.87,5.57-19,13-47.42,20.56-65.56,34.93-96.56,101.75-190.51,199.44-231.16,34.45-16.05,55.06,33,19.79,45.63h0v.03h0Z"/>
  </g>
  <g>
    <g>
      <path class="st5" d="M1504.53,2668.61s-.7,126.13,116.65,120.01c0,0,24.55,95.59,149.34,67.91,0,0,26.29,59.13,117.45,41.09,0,0,54.76,26.26,121.57,12.15,68.05-5.59,114.08-40.74,114.08-40.74,92.51-8.79,100.79-72.97,100.79-72.97,127.49-9.18,123.68-107.79,123.68-107.79,114.2-27.7,77.45-148.36,77.45-148.36,0,0-369.88-143.94-921,128.7h0Z"/>
      <path class="st11" d="M1969.28,2942.8c-38.75,0-69.79-9.67-84.54-15.27-70.86,11.18-109.33-17.95-127.37-39.26-89.01,12.61-136.68-32.41-155.96-70.93-31.96-2.16-58.83-13.47-80.09-33.76-45.54-43.47-45.68-112.22-45.67-115.12.06-10.92,6.28-20.88,16.07-25.73,289.83-143.37,529.94-171.49,680.32-169.58,164.71,1.94,259.99,38.31,263.96,39.85,8.25,3.21,14.58,10.03,17.16,18.5.84,2.78,20.37,68.7-10.83,123.37-14.57,25.53-37.08,44.05-67.08,55.26-7.46,42.43-40.26,99.2-129.16,112.58-11.26,25.72-40.04,64.94-112.05,74.21-16.6,10.87-60.87,36.16-120.34,41.48-15.54,3.14-30.49,4.4-44.43,4.4h.01ZM1887.97,2868.73c4.3,0,8.57.96,12.49,2.84.34.16,47.39,21.69,103.11,9.94,1.19-.25,2.39-.43,3.6-.53,58.12-4.78,98.62-34.69,99.02-34.99,4.25-3.19,9.41-5.21,14.69-5.72,64.24-6.1,73.8-42.52,74.9-48.16,1.32-14.02,12.46-23.84,26.55-24.86,98.5-7.09,97.01-74.98,96.89-77.87-.53-13.74,8.69-25.95,22.05-29.18,24.49-5.94,41.09-16.97,50.75-33.72,12.43-21.56,11.11-48.4,8.7-64.39-31.33-9.52-112.82-30.18-232.68-31.23-140.3-1.29-362.95,24.96-632.93,154.95,2.63,16.13,9.31,40.1,26.29,56.16,14.05,13.29,33.11,19.14,58.27,17.8,13.66-.65,26.06,8.34,29.48,21.66,1.9,6.69,21.94,67.58,115.12,46.89,13.77-3.05,27.27,3.16,32.55,16.23,2.67,5.09,22.23,37.26,85.55,24.73,1.86-.37,3.73-.55,5.61-.55h-.01Z"/>
    </g>
    <g>
      <path class="st6" d="M2340.77,2607.87c-326.68,171.29-964.08,190.04-1152.12-238.1-188.04-428.2,17.84-1040.35,679.22-1074.24,661.38-33.95,679.1,554.3,679.1,554.3,7.14,6.99,13.95,14.09,20.43,21.35,35.6,39.32,62.37,82.5,80.39,128,81.16,205.18-17.35,456.75-307.02,608.7h0Z"/>
      <g class="st3">
        <path class="st5" d="M1461.51,1504c109.73-63.38,239.71-99.32,386.35-106.83,22.84-1.17,45.5-1.64,67.27-1.37,240.39,3.09,412.94,93.51,512.8,268.79,29.04,50.99,47.57,101.77,59.43,145.06-7.06-46.88-25.13-126.9-71-207.45-93.93-164.88-256.24-249.94-482.37-252.85-20.48-.26-41.79.18-63.28,1.28-137.93,7.06-260.2,40.87-363.42,100.49-69.77,40.31-129.82,91.67-179.26,153.21,39.79-38.42,84.37-71.97,133.5-100.35l-.02.02h0Z"/>
      </g>
      <path class="st0" d="M2616.12,2195.51c-21.66,139.11-128.65,273.15-301,363.51-132.11,69.24-313.85,109.3-486.11,107.08-133.46-1.72-256-28.46-354.29-77.31-109.98-54.63-189.2-135.8-235.54-241.23-20.17-45.86-35.34-93.47-45.76-141.91,3.42,8.66,6.96,17.2,10.71,25.7,184.39,419.87,809.47,401.46,1129.82,233.51,137.72-72.26,231.36-167.49,282.18-269.35h0Z"/>
      <ellipse class="st1" cx="1499.8" cy="2310.01" rx="191.21" ry="116.69" transform="translate(-67.08 44.96) rotate(-1.68)"/>
      <path class="st1" d="M2667.36,2023.96c-14.33,28.49-39.98,57.04-73.99,79.7-71.38,47.41-152.72,50.56-181.68,6.99-28.92-43.56,5.45-117.34,76.83-164.75,35.52-23.63,73.48-36.26,106.22-37.59,32.16,35.53,56.35,74.54,72.63,115.65h-.01Z"/>
      <g>
        <path class="st11" d="M2128.49,2015.21s-41.93,61.21-187.32,52.62c0,0,90.98,182.36,167.72,164.61s32.32-110.83,19.6-217.23h0Z"/>
        <path class="st1" d="M2146.71,2204.63s-18.89-139.76-172.34-102.07c0,0,46.72,84.3,93.42,106.33,46.7,22.03,74.81,8.3,78.92-4.26Z"/>
        <path class="st11" d="M2098.48,2252.66c-83.82,0-164.9-157.4-174.35-176.33-3.03-6.08-2.6-13.32,1.15-18.99s10.24-8.84,17.01-8.52c130.7,7.77,170.28-44.09,170.66-44.62,4.48-6.54,12.46-9.51,20.16-7.61,7.7,1.89,13.34,8.48,14.28,16.35,3.02,25.27,7.86,49.66,12.54,73.26,14.36,72.38,29.21,147.22-46.76,164.79-4.9,1.13-9.81,1.67-14.7,1.67h.01ZM1973.6,2087.65c33.45,57.51,91.32,135.31,131.01,126.24,36.56-8.46,33.97-39.7,17.99-120.28-2.59-13.03-5.37-27.04-7.87-41.55-25.52,16.44-69.8,34.71-141.12,35.6h0Z"/>
      </g>
      <g>
        <ellipse class="st11" cx="1702.13" cy="2071.67" rx="135.68" ry="157.1" transform="translate(-353.84 350.61) rotate(-10.66)"/>
        <ellipse class="st5" cx="1663.33" cy="2057.03" rx="55.29" ry="64.02" transform="translate(-351.81 343.18) rotate(-10.66)"/>
        <g class="st13">
          <ellipse class="st5" cx="1755.6" cy="2124.39" rx="42.23" ry="36.47" transform="translate(-588.66 3573.39) rotate(-82.15)"/>
        </g>
      </g>
      <g>
        <ellipse class="st11" cx="2294.97" cy="1927.71" rx="126.04" ry="145.94" transform="translate(-316.98 457.79) rotate(-10.66)"/>
        <ellipse class="st5" cx="2258.93" cy="1914.12" rx="51.36" ry="59.47" transform="translate(-315.09 450.89) rotate(-10.66)"/>
        <g class="st13">
          <ellipse class="st5" cx="2344.62" cy="1976.71" rx="39.23" ry="33.88" transform="translate(66.21 4029.38) rotate(-82.15)"/>
        </g>
      </g>
      <path class="st11" d="M1842.05,2749.45c-107.57,0-217.34-15.21-320.48-51.35-169.23-59.29-293.08-168.99-358.19-317.24-107.1-243.91-88.84-532.85,47.66-754.06,133.65-216.58,366.41-344.02,655.41-358.84,216.23-11.07,389.01,41.43,513.42,156.1,164.86,151.95,190.27,362.42,194.07,413.68,99.99,101.97,144.08,231.87,124.26,366.95-24.93,169.96-150.55,325.82-344.63,427.62-127,66.61-315.55,117.14-511.54,117.15h.02,0ZM1921.95,1321.7c-17.22,0-34.77.46-52.66,1.38-270.34,13.87-487.43,132.02-611.26,332.71-127.12,206-144.02,475.33-44.1,702.88,59.63,135.8,169.28,232.48,325.9,287.34,263.23,92.22,595.73,38.32,788.12-62.59,178.26-93.5,293.31-234.46,315.65-386.74,17.68-120.55-23.48-236.72-115.9-327.12-5.09-4.99-8.06-11.74-8.29-18.86h0c-.08-2.3-9.47-232.07-177.4-386.46-102.98-94.68-244.13-142.52-420.08-142.52l.02-.02h0Z"/>
    </g>
    <path class="st10" d="M2015.71,1050.51c2.41-141.5,66.84-286.07,186.22-342.37,13.29-5.98,27.82-10.37,43.3-12.73,75.59-11.53,144.49,29.12,153.89,90.78,9.4,61.66-44.25,121-119.84,132.53-31.13,4.75-61.12.63-86.3-10.15-33.8,41.72-52.01,113.95-60.68,154.79-22.37,111.76-25.99,232.14-20.19,346.85,2.04,33.2-44.87,40.7-53.36,8.58-27.85-121.6-45.45-242.14-43.05-368.27h.01Z"/>
    <path class="st10" d="M1366.58,1273.79c-51.26-131.91-46.26-290.11,42.98-387.36,10.04-10.56,21.84-20.12,35.28-28.16,65.62-39.25,144.77-27.66,176.79,25.87s4.77,128.75-60.85,167.99c-27.03,16.17-56.35,23.69-83.73,23.23-15.52,51.4-5.07,125.16,2.34,166.24,21.54,111.93,63.7,224.74,112.42,328.74,14.44,29.96-26.15,54.64-46.16,28.11-71.75-102.05-133.61-206.99-179.07-324.67h0Z"/>
  </g>
</svg>