<?xml version="1.0" encoding="UTF-8"?>
<svg id="Layer_1" xmlns="http://www.w3.org/2000/svg" version="1.1" viewBox="0 0 1366 768">
  <!-- Generator: Adobe Illustrator 29.8.2, SVG Export Plug-In . SVG Version: 2.1.1 Build 3)  -->
  <defs>
    <style>
      .st0 {
        fill: none;
      }

      .st0, .st1 {
        stroke: #000;
        stroke-miterlimit: 10;
      }

      .st2, .st1 {
        fill: #fff;
      }

      .st3 {
        fill: #a09;
      }
    </style>
  </defs>
  <rect class="st1" x="231" y="121" width="922" height="529"/>
  <g>
    <path class="st2" d="M403.22,295.57c-9.84,0-17.85-10.04-17.85-22.38s8.01-22.38,17.85-22.38,17.85,10.04,17.85,22.38-8.01,22.38-17.85,22.38Z"/>
    <path d="M403.22,251.13c9.67,0,17.54,9.89,17.54,22.05s-7.87,22.05-17.54,22.05-17.54-9.89-17.54-22.05,7.87-22.05,17.54-22.05M403.22,250.47c-10.03,0-18.16,10.17-18.16,22.71s8.13,22.71,18.16,22.71,18.16-10.17,18.16-22.71-8.13-22.71-18.16-22.71h0Z"/>
  </g>
  <g>
    <path class="st2" d="M646.56,299.85c-9.84,0-17.85-10.04-17.85-22.38s8.01-22.38,17.85-22.38,17.85,10.04,17.85,22.38-8.01,22.38-17.85,22.38Z"/>
    <path d="M646.56,255.41c9.67,0,17.54,9.89,17.54,22.05s-7.87,22.05-17.54,22.05-17.54-9.89-17.54-22.05,7.87-22.05,17.54-22.05M646.56,254.75c-10.03,0-18.16,10.17-18.16,22.71s8.13,22.71,18.16,22.71,18.16-10.17,18.16-22.71-8.13-22.71-18.16-22.71h0Z"/>
  </g>
  <line class="st0" x1="403.22" y1="295.9" x2="402.9" y2="390.04"/>
  <line class="st0" x1="649.69" y1="301.82" x2="648.44" y2="395.31"/>
  <line class="st0" x1="386.62" y1="319.6" x2="401.65" y2="346.59"/>
  <line class="st0" x1="650.31" y1="347.25" x2="657.2" y2="326.18"/>
  <line class="st0" x1="650.31" y1="347.25" x2="632.78" y2="365.02"/>
  <line class="st0" x1="401.65" y1="346.59" x2="411.05" y2="326.84"/>
  <line class="st0" x1="402.9" y1="388.06" x2="367.2" y2="415.06"/>
  <line class="st0" x1="401.02" y1="389.38" x2="414.8" y2="419.66"/>
  <line class="st0" x1="650.31" y1="393.99" x2="670.98" y2="417.69"/>
  <line class="st0" x1="647.18" y1="394.65" x2="610.23" y2="418.35"/>
  <g>
    <g>
      <path class="st2" d="M462.38,295.82c-9.84,0-17.85-10.04-17.85-22.38s8.01-22.38,17.85-22.38,17.85,10.04,17.85,22.38-8.01,22.38-17.85,22.38Z"/>
      <path d="M462.38,251.39c9.67,0,17.54,9.89,17.54,22.05s-7.87,22.05-17.54,22.05-17.54-9.89-17.54-22.05,7.87-22.05,17.54-22.05M462.38,250.73c-10.03,0-18.16,10.17-18.16,22.71s8.13,22.71,18.16,22.71,18.16-10.17,18.16-22.71-8.13-22.71-18.16-22.71h0Z"/>
    </g>
    <g>
      <path class="st2" d="M705.72,300.1c-9.84,0-17.85-10.04-17.85-22.38s8.01-22.38,17.85-22.38,17.85,10.04,17.85,22.38-8.01,22.38-17.85,22.38Z"/>
      <path d="M705.72,255.67c9.67,0,17.54,9.89,17.54,22.05s-7.87,22.05-17.54,22.05-17.54-9.89-17.54-22.05,7.87-22.05,17.54-22.05M705.72,255.01c-10.03,0-18.16,10.17-18.16,22.71s8.13,22.71,18.16,22.71,18.16-10.17,18.16-22.71-8.13-22.71-18.16-22.71h0Z"/>
    </g>
    <line class="st0" x1="462.38" y1="296.15" x2="462.07" y2="390.3"/>
    <line class="st0" x1="708.85" y1="302.08" x2="707.6" y2="395.56"/>
    <line class="st0" x1="445.78" y1="319.85" x2="460.82" y2="346.85"/>
    <line class="st0" x1="709.48" y1="347.5" x2="716.37" y2="326.44"/>
    <line class="st0" x1="709.48" y1="347.5" x2="691.94" y2="365.28"/>
    <line class="st0" x1="460.82" y1="346.85" x2="470.21" y2="327.1"/>
    <line class="st0" x1="462.07" y1="388.32" x2="426.37" y2="415.31"/>
    <line class="st0" x1="460.19" y1="389.64" x2="473.97" y2="419.92"/>
    <line class="st0" x1="709.48" y1="394.25" x2="730.15" y2="417.95"/>
    <line class="st0" x1="706.35" y1="394.9" x2="669.39" y2="418.6"/>
  </g>
  <g>
    <g>
      <path class="st2" d="M512.49,307.67c-9.84,0-17.85-10.04-17.85-22.38s8.01-22.38,17.85-22.38,17.85,10.04,17.85,22.38-8.01,22.38-17.85,22.38Z"/>
      <path d="M512.49,263.24c9.67,0,17.54,9.89,17.54,22.05s-7.87,22.05-17.54,22.05-17.54-9.89-17.54-22.05,7.87-22.05,17.54-22.05M512.49,262.58c-10.03,0-18.16,10.17-18.16,22.71s8.13,22.71,18.16,22.71,18.16-10.17,18.16-22.71-8.13-22.71-18.16-22.71h0Z"/>
    </g>
    <g>
      <path class="st2" d="M755.83,311.95c-9.84,0-17.85-10.04-17.85-22.38s8.01-22.38,17.85-22.38,17.85,10.04,17.85,22.38-8.01,22.38-17.85,22.38Z"/>
      <path d="M755.83,267.52c9.67,0,17.54,9.89,17.54,22.05s-7.87,22.05-17.54,22.05-17.54-9.89-17.54-22.05,7.87-22.05,17.54-22.05M755.83,266.86c-10.03,0-18.16,10.17-18.16,22.71s8.13,22.71,18.16,22.71,18.16-10.17,18.16-22.71-8.13-22.71-18.16-22.71h0Z"/>
    </g>
    <line class="st0" x1="512.49" y1="308" x2="512.18" y2="402.15"/>
    <line class="st0" x1="758.96" y1="313.93" x2="757.71" y2="407.41"/>
    <line class="st0" x1="495.89" y1="331.7" x2="510.92" y2="358.7"/>
    <line class="st0" x1="759.59" y1="359.35" x2="766.48" y2="338.29"/>
    <line class="st0" x1="759.59" y1="359.35" x2="742.05" y2="377.13"/>
    <line class="st0" x1="510.92" y1="358.7" x2="520.32" y2="338.95"/>
    <line class="st0" x1="512.18" y1="400.17" x2="476.48" y2="427.16"/>
    <line class="st0" x1="510.3" y1="401.49" x2="524.08" y2="431.77"/>
    <line class="st0" x1="759.59" y1="406.1" x2="780.26" y2="429.8"/>
    <line class="st0" x1="756.46" y1="406.75" x2="719.5" y2="430.45"/>
  </g>
  <g>
    <g>
      <path class="st2" d="M571.05,305.8c-9.85,0-17.85-10.04-17.85-22.38s8.01-22.38,17.85-22.38,17.85,10.04,17.85,22.38-8.01,22.38-17.85,22.38Z"/>
      <path d="M571.05,261.36c9.67,0,17.54,9.89,17.54,22.05s-7.87,22.05-17.54,22.05-17.54-9.89-17.54-22.05,7.87-22.05,17.54-22.05M571.05,260.7c-10.03,0-18.16,10.17-18.16,22.71s8.13,22.71,18.16,22.71,18.16-10.17,18.16-22.71-8.13-22.71-18.16-22.71h0Z"/>
    </g>
    <line class="st0" x1="574.18" y1="307.77" x2="572.93" y2="401.26"/>
    <line class="st0" x1="574.81" y1="353.2" x2="581.7" y2="332.13"/>
    <line class="st0" x1="574.81" y1="353.2" x2="557.27" y2="370.97"/>
    <line class="st0" x1="574.81" y1="399.94" x2="595.48" y2="423.64"/>
    <line class="st0" x1="571.68" y1="400.6" x2="534.72" y2="424.3"/>
  </g>
  <g>
    <g>
      <path class="st2" d="M829.11,305.8c-9.85,0-17.85-10.04-17.85-22.38s8.01-22.38,17.85-22.38,17.85,10.04,17.85,22.38-8.01,22.38-17.85,22.38Z"/>
      <path d="M829.11,261.36c9.67,0,17.54,9.89,17.54,22.05s-7.87,22.05-17.54,22.05-17.54-9.89-17.54-22.05,7.87-22.05,17.54-22.05M829.11,260.7c-10.03,0-18.16,10.17-18.16,22.71s8.13,22.71,18.16,22.71,18.16-10.17,18.16-22.71-8.13-22.71-18.16-22.71h0Z"/>
    </g>
    <line class="st0" x1="832.24" y1="307.77" x2="830.99" y2="401.26"/>
    <line class="st0" x1="832.87" y1="353.2" x2="839.76" y2="332.13"/>
    <line class="st0" x1="832.87" y1="353.2" x2="815.33" y2="370.97"/>
    <line class="st0" x1="832.87" y1="399.94" x2="853.54" y2="423.64"/>
    <line class="st0" x1="829.73" y1="400.6" x2="792.78" y2="424.3"/>
  </g>
  <g>
    <path class="st2" d="M909.88,300.43c-9.84,0-17.85-10.04-17.85-22.38s8-22.38,17.85-22.38,17.85,10.04,17.85,22.38-8.01,22.38-17.85,22.38Z"/>
    <path d="M909.88,255.99c9.67,0,17.54,9.89,17.54,22.05s-7.87,22.05-17.54,22.05-17.54-9.89-17.54-22.05,7.87-22.05,17.54-22.05M909.88,255.34c-10.03,0-18.16,10.17-18.16,22.71s8.13,22.71,18.16,22.71,18.16-10.17,18.16-22.71-8.13-22.71-18.16-22.71h0Z"/>
  </g>
  <line class="st0" x1="909.88" y1="300.76" x2="909.56" y2="394.9"/>
  <line class="st0" x1="910.25" y1="341.32" x2="925.29" y2="368.31"/>
  <line class="st0" x1="895.22" y1="327.5" x2="909.56" y2="341.58"/>
  <line class="st0" x1="909.56" y1="392.93" x2="873.86" y2="419.92"/>
  <line class="st0" x1="907.68" y1="394.25" x2="921.46" y2="424.53"/>
  <g>
    <path class="st2" d="M607.97,303.07c-9.84,0-17.85-10.04-17.85-22.38s8-22.38,17.85-22.38,17.85,10.04,17.85,22.38-8.01,22.38-17.85,22.38Z"/>
    <path d="M607.97,258.63c9.67,0,17.54,9.89,17.54,22.05s-7.87,22.05-17.54,22.05-17.54-9.89-17.54-22.05,7.87-22.05,17.54-22.05M607.97,257.97c-10.03,0-18.16,10.17-18.16,22.71s8.13,22.71,18.16,22.71,18.16-10.17,18.16-22.71-8.13-22.71-18.16-22.71h0Z"/>
  </g>
  <line class="st0" x1="607.97" y1="303.4" x2="607.66" y2="397.54"/>
  <line class="st0" x1="591.37" y1="327.1" x2="606.41" y2="354.09"/>
  <line class="st0" x1="606.41" y1="354.09" x2="615.8" y2="334.34"/>
  <line class="st0" x1="607.66" y1="395.56" x2="571.96" y2="422.55"/>
  <line class="st0" x1="605.78" y1="396.88" x2="619.56" y2="427.16"/>
  <g>
    <path class="st2" d="M864.78,300.43c-9.84,0-17.85-10.04-17.85-22.38s8-22.38,17.85-22.38,17.85,10.04,17.85,22.38-8.01,22.38-17.85,22.38Z"/>
    <path d="M864.78,255.99c9.67,0,17.54,9.89,17.54,22.05s-7.87,22.05-17.54,22.05-17.54-9.89-17.54-22.05,7.87-22.05,17.54-22.05M864.78,255.34c-10.03,0-18.16,10.17-18.16,22.71s8.13,22.71,18.16,22.71,18.16-10.17,18.16-22.71-8.13-22.71-18.16-22.71h0Z"/>
  </g>
  <line class="st0" x1="866.03" y1="300.76" x2="865.72" y2="394.9"/>
  <line class="st0" x1="852.57" y1="324.46" x2="867.6" y2="351.45"/>
  <line class="st0" x1="866.97" y1="351.45" x2="876.37" y2="331.7"/>
  <line class="st0" x1="870.1" y1="392.93" x2="834.4" y2="419.92"/>
  <line class="st0" x1="863.84" y1="394.25" x2="877.62" y2="424.53"/>
  <g>
    <g>
      <path class="st2" d="M546.65,304.13c-9.84,0-17.85-10.04-17.85-22.38s8.01-22.38,17.85-22.38,17.85,10.04,17.85,22.38-8.01,22.38-17.85,22.38Z"/>
      <path d="M546.65,259.69c9.67,0,17.54,9.89,17.54,22.05s-7.87,22.05-17.54,22.05-17.54-9.89-17.54-22.05,7.87-22.05,17.54-22.05M546.65,259.03c-10.03,0-18.16,10.17-18.16,22.71s8.13,22.71,18.16,22.71,18.16-10.17,18.16-22.71-8.13-22.71-18.16-22.71h0Z"/>
    </g>
    <g>
      <path class="st2" d="M789.99,308.41c-9.84,0-17.85-10.04-17.85-22.38s8.01-22.38,17.85-22.38,17.85,10.04,17.85,22.38-8.01,22.38-17.85,22.38Z"/>
      <path d="M789.99,263.97c9.67,0,17.54,9.89,17.54,22.05s-7.87,22.05-17.54,22.05-17.54-9.89-17.54-22.05,7.87-22.05,17.54-22.05M789.99,263.31c-10.03,0-18.16,10.17-18.16,22.71s8.13,22.71,18.16,22.71,18.16-10.17,18.16-22.71-8.13-22.71-18.16-22.71h0Z"/>
    </g>
    <line class="st0" x1="546.65" y1="304.46" x2="546.34" y2="398.6"/>
    <line class="st0" x1="793.12" y1="310.38" x2="791.87" y2="403.86"/>
    <line class="st0" x1="530.05" y1="328.16" x2="545.09" y2="355.15"/>
    <line class="st0" x1="793.75" y1="355.81" x2="800.64" y2="334.74"/>
    <line class="st0" x1="793.75" y1="355.81" x2="776.21" y2="373.58"/>
    <line class="st0" x1="545.09" y1="355.15" x2="554.48" y2="335.4"/>
    <line class="st0" x1="546.34" y1="396.62" x2="510.64" y2="423.61"/>
    <line class="st0" x1="544.46" y1="397.94" x2="558.24" y2="428.22"/>
    <line class="st0" x1="793.75" y1="402.55" x2="814.42" y2="426.25"/>
    <line class="st0" x1="790.62" y1="403.21" x2="753.66" y2="426.91"/>
  </g>
  <g>
    <g>
      <path class="st2" d="M950.62,307.77c-9.85,0-17.85-10.04-17.85-22.38s8.01-22.38,17.85-22.38,17.85,10.04,17.85,22.38-8.01,22.38-17.85,22.38Z"/>
      <path d="M950.62,263.34c9.67,0,17.54,9.89,17.54,22.05s-7.87,22.05-17.54,22.05-17.54-9.89-17.54-22.05,7.87-22.05,17.54-22.05M950.62,262.68c-10.03,0-18.16,10.17-18.16,22.71s8.13,22.71,18.16,22.71,18.16-10.17,18.16-22.71-8.13-22.71-18.16-22.71h0Z"/>
    </g>
    <line class="st0" x1="953.75" y1="309.75" x2="952.5" y2="403.23"/>
    <line class="st0" x1="954.38" y1="355.17" x2="961.27" y2="334.11"/>
    <line class="st0" x1="954.38" y1="355.17" x2="936.84" y2="372.95"/>
    <line class="st0" x1="954.38" y1="401.92" x2="975.05" y2="425.62"/>
    <line class="st0" x1="951.25" y1="402.57" x2="914.29" y2="426.27"/>
  </g>
  <path d="M394.45,268.25v1.98c0,.25.11.52.28.7s.43.3.66.29.49-.09.66-.29.28-.43.28-.7v-1.98c0-.25-.11-.52-.28-.7s-.43-.3-.66-.29-.49.09-.66.29-.28.43-.28.7h0Z"/>
  <path d="M403.22,265.61v5.27c0,.51.43,1.01.94.99s.94-.43.94-.99v-5.27c0-.51-.43-1.01-.94-.99s-.94.43-.94.99h0Z"/>
  <path d="M395.84,281.9c1.02,1.62,2.86,2.42,4.69,2.25s3.59-1.15,4.32-2.94c.2-.49.14-1.06-.34-1.35-.39-.24-1.08-.14-1.28.36-.07.17-.15.34-.24.5-.05.09-.1.16-.16.24.09-.14-.01.01-.06.07-.11.13-.22.24-.34.36-.05.05-.19.15-.06.05-.07.05-.13.1-.2.14-.15.1-.3.18-.46.27-.21.11.06,0-.11.05-.08.03-.16.06-.23.09-.16.05-.31.1-.48.14-.08.02-.16.03-.24.05-.18.04.13,0-.12.01-.34.02-.68.03-1.03-.01.22.03-.04-.01-.08-.02-.08-.01-.16-.03-.24-.05-.17-.05-.34-.1-.5-.16-.06-.03-.05-.02.04.02-.04-.02-.08-.03-.11-.05-.08-.05-.17-.09-.25-.14-.14-.09-.28-.17-.4-.28.16.13-.04-.05-.06-.06-.06-.06-.12-.12-.18-.18s-.11-.13-.16-.19c-.07-.09-.07-.09,0,0-.03-.05-.06-.09-.09-.14-.28-.44-.83-.63-1.28-.36-.42.26-.62.9-.34,1.35h0Z"/>
  <path d="M457.08,269.56v2.63c0,.51.43,1.01.94.99s.94-.43.94-.99v-2.63c0-.51-.43-1.01-.94-.99s-.94.43-.94.99h0Z"/>
  <path d="M464.12,268.73c.13.22.25.44.34.67l-.09-.24c.15.38.25.76.3,1.16l-.03-.26c.04.36.04.73,0,1.09l.03-.26c-.02.13-.04.25-.06.38-.11.5.14,1.09.66,1.22.48.11,1.05-.15,1.16-.69.29-1.38.07-2.87-.68-4.06-.27-.43-.85-.65-1.28-.36-.41.28-.63.89-.34,1.35h0Z"/>
  <path d="M457.03,283.01c.51,2.46,2.62,4.33,4.99,4.52s4.74-1.57,5.54-3.94c.17-.5-.19-1.08-.66-1.22-.52-.15-.98.18-1.16.69-.53,1.57-2.16,2.63-3.73,2.48s-2.85-1.49-3.18-3.07c-.11-.52-.68-.82-1.16-.69-.51.14-.76.69-.66,1.22h.01Z"/>
  <path d="M504.81,281.91l1.25,1.98c.14.22.32.38.56.45.23.07.53.03.73-.1s.38-.34.43-.59.04-.54-.09-.76l-1.25-1.98c-.14-.22-.32-.38-.56-.45-.23-.07-.53-.03-.73.1s-.38.34-.43.59-.04.54.09.76h0Z"/>
  <path d="M516.59,280.75v3.29c0,.51.43,1.01.94.99s.94-.43.94-.99v-3.29c0-.51-.43-1.01-.94-.99s-.94.43-.94.99h0Z"/>
  <path d="M509.58,292.56c.19,1.99,1.72,3.5,3.6,3.71s3.33-1.19,3.81-2.93c.28-1,.18-2.07-.28-3-.23-.45-.87-.63-1.28-.36-.44.3-.58.86-.34,1.35.03.05.08.13.09.19,0,0-.06-.18-.03-.07.01.05.03.09.04.13.02.07.04.13.05.2,0,.03.01.07.02.1.03.15.01-.04,0-.06.06.07.02.38.01.45,0,.07-.01.14-.01.21,0,.12,0-.1.01-.09.01.02-.02.11-.03.14-.03.15-.07.3-.11.44-.01.04-.1.23-.04.11s-.05.1-.07.14c-.07.13-.16.26-.23.39-.05.09.04-.06.04-.06-.03.03-.04.05-.06.08-.05.06-.1.12-.16.18s-.12.11-.17.16c-.08.08.06-.05.06-.05-.01.02-.06.05-.08.06-.08.05-.28.24-.38.22,0,0,.21-.08.04-.02-.03.01-.06.03-.09.03-.07.02-.13.04-.2.06-.04,0-.24.03-.12.03s-.11,0-.15,0c-.08,0-.16,0-.24,0-.03,0-.08,0-.11-.01,0,0,.18.05.08,0-.16-.05-.32-.08-.48-.13-.03-.01-.06-.03-.1-.04,0,0,.15.08.06.03-.06-.04-.13-.07-.19-.1s-.13-.07-.18-.11c-.03-.02-.06-.04-.09-.06-.03-.01-.18-.14-.08-.05.09.07-.09-.09-.12-.11-.06-.06-.12-.12-.18-.18s-.16-.22-.06-.05c-.06-.08-.11-.16-.16-.24-.04-.07-.08-.15-.12-.22-.02-.03-.03-.07-.04-.1.03.07.05.14.02.03-.03-.09-.06-.18-.08-.28,0-.03-.01-.07-.02-.11-.04-.13.02.24,0,0-.05-.51-.39-1.01-.94-.99-.46.02-1,.43-.94.99h0Z"/>
  <path d="M539.84,281.01l1.38,5.23c.13.5.67.86,1.16.69s.8-.68.66-1.22l-1.38-5.23c-.13-.5-.67-.86-1.16-.69s-.8.68-.66,1.22h0Z"/>
  <path d="M545.56,280.57c.14.22.27.46.37.71l-.09-.24c.13.34.22.68.27,1.04l-.03-.26c.04.36.04.72,0,1.08l.03-.26c-.03.16-.05.32-.09.47-.13.5.16,1.09.66,1.22s1.02-.16,1.16-.69c.34-1.36.13-2.9-.65-4.07-.14-.22-.32-.38-.56-.45-.23-.07-.53-.03-.73.1-.4.27-.63.9-.34,1.35h0Z"/>
  <path d="M543.36,294.11c1.72,1.03,3.96-.05,4.7-1.89.23-.58.28-1.18.17-1.8-.04-.23-.24-.47-.43-.59-.2-.13-.5-.18-.73-.1-.53.18-.75.66-.66,1.22.03.17-.03-.29,0-.04v.15s0,.1,0,.15c0,.17.05-.29,0-.05-.02.1-.04.2-.08.29-.06.2.04-.06.04-.07,0,.01-.06.14-.07.16-.04.09-.09.18-.15.26-.13.2.13-.15.02-.03-.03.03-.06.07-.08.1-.07.08-.14.15-.21.22-.04.04-.09.07-.13.12.23-.21.1-.08.04-.03-.09.07-.18.13-.27.18l-.11.06c-.21.11.18-.07.03-.01-.09.03-.18.07-.28.09s-.43.05-.08.03c-.09,0-.19.02-.29.01-.06,0-.11,0-.16,0-.17,0,.25.05.09.01-.09-.02-.19-.04-.28-.07-.22-.08.17.09.03.02-.05-.03-.1-.05-.15-.09-.43-.26-1.05-.12-1.28.36s-.12,1.08.34,1.35h0Z"/>
  <path d="M568.57,278.12v.66c0,.14.03.26.08.38.04.13.1.23.19.32.09.1.19.16.3.2.11.06.23.09.36.09l.25-.03c.16-.05.29-.13.41-.26l.14-.2c.09-.15.13-.32.13-.5v-.66c0-.14-.03-.26-.08-.38-.04-.13-.1-.23-.19-.32-.09-.1-.19-.16-.3-.2-.11-.06-.23-.09-.36-.09l-.25.03c-.16.05-.29.13-.41.26l-.14.2c-.09.15-.13.32-.13.5h0Z"/>
  <path d="M572.65,278.45c1.21,0,1.21-1.98,0-1.98s-1.21,1.98,0,1.98h0Z"/>
  <path d="M569.15,290.57c.92,1.78,3.07,2.75,4.92,2.17s3.23-2.65,3.01-4.7c-.06-.51-.39-1.01-.94-.99-.46.02-1,.43-.94.99.02.18.03.36.02.54,0,.07-.03.28,0,.1-.01.09-.03.18-.05.26s-.04.18-.07.26c-.01.05-.09.26-.03.11-.07.16-.15.33-.24.48-.04.08-.09.15-.14.22.11-.15-.04.05-.07.08-.11.14-.24.26-.37.38.14-.13-.05.04-.09.06-.07.05-.14.1-.22.14s-.15.09-.23.12c.18-.08-.1.03-.14.04-.08.03-.16.05-.24.07-.04,0-.08.02-.13.03.09-.01.11-.01.04,0-.17,0-.33.02-.51,0-.04,0-.08,0-.13-.01.09.01.11.02.04,0-.08-.02-.17-.03-.25-.05s-.16-.05-.24-.07c-.03,0-.26-.1-.17-.06s-.13-.07-.16-.08c-.08-.04-.15-.09-.22-.13s-.14-.1-.21-.14c-.06-.04-.04-.03.03.02-.03-.03-.06-.06-.09-.09-.13-.12-.24-.24-.35-.38-.04-.05-.04-.05.02.03-.03-.03-.05-.07-.07-.11-.06-.09-.11-.18-.15-.27-.24-.47-.86-.62-1.28-.36-.45.28-.58.88-.34,1.35h0v.02Z"/>
  <path d="M603.65,277.46v4.61c0,.51.43,1.01.94.99s.94-.43.94-.99v-4.61c0-.51-.43-1.01-.94-.99s-.94.43-.94.99h0Z"/>
  <path d="M607.41,277.46v1.98c0,.25.11.52.28.7s.43.3.66.29.49-.09.66-.29.28-.43.28-.7v-1.98c0-.25-.11-.52-.28-.7s-.43-.3-.66-.29-.49.09-.66.29-.28.43-.28.7h0Z"/>
  <path d="M604.59,291.62c2.91.23,5.9-1.63,7.08-4.43.21-.49.14-1.06-.34-1.35-.4-.24-1.08-.14-1.28.36-.13.29-.26.57-.43.84-.05.08-.1.16-.15.24-.01.02-.15.21-.09.13.06-.08-.1.13-.09.13-.05.06-.1.12-.15.18-.2.24-.42.45-.65.66-.04.03-.16.14-.06.05-.07.06-.14.11-.22.16-.13.09-.25.18-.38.26s-.26.16-.39.23c-.07.03-.14.07-.21.11-.05.03-.19.09-.06.03-.28.13-.56.22-.86.3-.14.04-.29.07-.44.1-.01,0-.3.05-.11.02-.08,0-.15.02-.23.03-.31.03-.63.03-.95,0-.49-.04-.96.48-.94.99.03.57.41.95.94.99h0Z"/>
  <path d="M642.48,273.51v3.95c0,.51.43,1.01.94.99s.94-.43.94-.99v-3.95c0-.51-.43-1.01-.94-.99s-.94.43-.94.99h0Z"/>
  <path d="M646.87,274.17v3.95c0,.51.43,1.01.94.99s.94-.43.94-.99v-3.95c0-.51-.43-1.01-.94-.99s-.94.43-.94.99h0Z"/>
  <path d="M643.97,284.53c-.66,1.81-.16,3.95,1.06,5.37s3.25,1.9,4.99,1.33c1.05-.34,1.9-1,2.56-1.92.31-.43.06-1.11-.34-1.35-.48-.3-.98-.07-1.28.36.09-.12-.13.15-.16.18-.06.07-.13.14-.2.2-.04.05-.09.09-.14.13.07-.05.06-.05-.03.02-.08.05-.16.11-.24.16-.39.24-.59.32-1.08.43-.03,0-.28.05-.12.03-.13.02-.25.03-.38.03h-.28s-.39-.04-.21-.01c-.2-.03-.39-.08-.59-.14-.03-.01-.31-.13-.17-.06-.1-.05-.19-.1-.29-.16-.61-.36-1.1-1.05-1.32-1.7-.17-.51-.2-.7-.19-1.19,0-.1,0-.2.01-.3.01-.12.01-.13,0-.03,0-.07.02-.13.03-.19.04-.22.11-.44.19-.66.18-.5-.2-1.09-.66-1.22-.53-.15-.97.19-1.16.69h0Z"/>
  <path d="M697.6,272.85v3.95c0,.51.43,1.01.94.99s.94-.43.94-.99v-3.95c0-.51-.43-1.01-.94-.99s-.94.43-.94.99h0Z"/>
  <path d="M702.08,271.78l.63,2.63c.12.5.68.85,1.16.69s.78-.68.66-1.22l-.63-2.63c-.12-.5-.68-.85-1.16-.69s-.78.68-.66,1.22h0Z"/>
  <path d="M700.17,285.67c1.17.99,2.65,1.26,4.1.84,1.35-.39,2.61-1.34,3.29-2.64.39-.74.6-1.6.52-2.44-.04-.53-.4-.99-.94-.99-.48,0-.98.45-.94.99.02.2.01.4,0,.6s.04-.19,0,.03c-.02.09-.04.19-.06.28-.02.07-.04.14-.06.21-.01.05-.03.09-.05.14.05-.13.06-.14.01-.03-.08.15-.14.3-.23.45-.05.09-.11.16-.16.24.14-.2,0-.01-.03.03-.13.15-.26.29-.39.42-.05.05-.11.1-.16.14-.08.07-.08.06.02-.02-.04.03-.08.06-.12.09-.14.1-.28.19-.43.28l-.23.12c-.05.03-.29.13-.07.04-.16.06-.31.12-.48.16-.09.03-.18.05-.28.07-.03,0-.31.06-.16.03s-.13.01-.16.01c-.09,0-.19.01-.28.01h-.21c-.06,0-.36-.05-.09,0-.16-.03-.31-.07-.47-.11-.09-.03-.18-.06-.26-.1.23.09.01,0-.03-.03-.08-.05-.16-.09-.24-.15-.04-.03-.29-.22-.1-.07-.39-.34-.94-.41-1.33,0-.33.34-.4,1.06,0,1.4h.02Z"/>
  <path d="M746.3,285.57c.08.05.14.1.21.16l-.19-.15c.18.14.33.31.47.49l-.14-.2c.14.2.26.41.36.64l-.09-.24c.09.24.16.49.19.75l-.03-.26c.03.2.03.39.01.59-.02.24.12.53.28.7s.43.3.66.29.49-.09.66-.29.26-.43.28-.7c.11-1.38-.61-2.75-1.71-3.48-.41-.28-1.05-.11-1.28.36-.24.49-.11,1.05.34,1.35h-.01Z"/>
  <path d="M751.47,284.05v.66c0,.14.03.26.08.38.04.13.1.23.19.32.09.1.19.16.3.2.11.06.23.09.36.09l.25-.03c.16-.05.29-.13.41-.26l.14-.2c.09-.15.13-.32.13-.5v-.66c0-.14-.03-.26-.08-.38-.04-.13-.1-.23-.19-.32-.09-.1-.19-.16-.3-.2-.11-.06-.23-.09-.36-.09l-.25.03c-.16.05-.29.13-.41.26l-.14.2c-.09.15-.13.32-.13.5h0Z"/>
  <path d="M748.83,293.65c-.6,1.49.7,2.94,1.99,3.3.74.21,1.48.12,2.15-.26s1.18-.97,1.58-1.61c.44-.71.74-1.51,1.03-2.3.18-.48-.19-1.11-.66-1.22-.54-.13-.97.17-1.16.69-.06.18-.13.36-.2.53-.09.24.04-.1-.03.09-.04.09-.08.19-.12.28-.14.32-.3.64-.49.93-.04.07-.09.14-.14.22-.04.06-.03.04.04-.05-.03.04-.06.08-.09.11-.11.13-.22.25-.34.37-.04.03-.07.07-.11.09.1-.08.11-.09.03-.02-.06.04-.11.08-.18.12s-.18.14-.25.14c.13-.05.14-.06.05-.03-.03.01-.06.02-.09.03-.05.01-.16.01-.21.05.15-.02.18-.03.07-.01h-.12s-.16-.03-.18-.01c.15.03.18.03.07,0-.04,0-.08-.02-.12-.03-.06-.01-.12-.03-.18-.05-.04-.01-.08-.03-.11-.05.13.06.15.07.06.03-.04-.03-.34-.23-.36-.22.11.09.13.11.05.04-.03-.02-.04-.04-.06-.06-.03-.03-.11-.14-.14-.15.09.13.1.14.04.06-.02-.03-.04-.07-.06-.1-.06-.12-.02-.14,0,.03,0-.04-.04-.18-.06-.21.02.17.03.2.01.1v-.05c0-.26-.06.14,0-.02.03-.08.04-.15.08-.23.19-.48-.21-1.11-.66-1.22-.55-.13-.95.18-1.16.69h.01Z"/>
  <path d="M782.79,280.75v1.32c0,.25.11.52.28.7.09.1.19.16.3.2.11.06.23.09.36.09.24-.01.49-.09.66-.29s.28-.43.28-.7v-1.32c0-.25-.11-.52-.28-.7-.09-.1-.19-.16-.3-.2-.11-.06-.23-.09-.36-.09-.24.01-.49.09-.66.29s-.28.43-.28.7h0Z"/>
  <path d="M788.08,281.45l1.25,1.32c.17.18.43.29.66.29.13,0,.25-.03.36-.09.12-.04.22-.11.3-.2.16-.19.29-.43.28-.7s-.09-.51-.28-.7l-1.25-1.32c-.17-.18-.43-.29-.66-.29-.13,0-.25.03-.36.09-.12.04-.22.11-.3.2-.16.19-.29.43-.28.7s.09.51.28.7h0Z"/>
  <path d="M784.17,290.17c-.28.82-.03,1.71.52,2.33s1.31.91,2.08,1c.81.1,1.59-.16,2.21-.7.68-.6,1.11-1.48,1.35-2.37.26-.98.31-2.02.32-3.03,0-.51-.44-1.01-.94-.99s-.93.43-.94.99c0,.36-.02.72-.04,1.07-.01.18-.03.36-.04.54-.03.26.02-.13,0,.06-.02.11-.03.21-.05.32-.06.35-.16.68-.27,1.01-.04.13.08-.17.02-.05-.01.03-.03.06-.04.09-.04.08-.08.16-.12.24-.04.07-.08.14-.12.2-.03.04-.05.07-.08.11-.06.11.15-.18.01-.01-.1.12-.2.24-.31.34,0,0-.1.09-.1.09,0-.02.2-.14.07-.06-.06.03-.11.07-.18.11-.14.09.21-.07.02,0-.06.02-.11.04-.17.05-.06.02-.14.02-.19.04.01,0,.25-.02.1-.01-.03,0-.07,0-.1,0h-.21s-.26-.03-.08,0-.03,0-.08-.02c-.08-.01-.15-.04-.22-.06-.06-.02-.11-.04-.17-.06-.15-.05.19.11.02,0-.12-.07-.23-.14-.33-.21-.09-.06.16.14.08.07-.03-.03-.06-.05-.09-.08-.04-.05-.08-.09-.13-.14-.08-.09.08,0,.06.09,0-.01-.04-.07-.05-.08-.02-.04-.13-.26-.05-.09s0-.05-.02-.1c-.01-.03-.02-.14,0,.04s0,.04,0,0v-.09c0-.13,0,.1-.02.12.03-.07.04-.17.07-.24.17-.49-.19-1.11-.66-1.22-.53-.13-.98.17-1.16.69h0Z"/>
  <path d="M824.75,281.41v1.98c0,.25.11.52.28.7s.43.3.66.29.49-.09.66-.29.28-.43.28-.7v-1.98c0-.25-.11-.52-.28-.7s-.43-.3-.66-.29-.49.09-.66.29-.28.43-.28.7h0Z"/>
  <path d="M830.08,283.06c1.21,0,1.21-1.98,0-1.98s-1.21,1.98,0,1.98h0Z"/>
  <path d="M822.86,289.31c-.1.98.39,1.98,1.11,2.59.77.65,1.72,1.01,2.72.86.59-.09,1.11-.35,1.55-.78.36-.36.36-1.05,0-1.4-.39-.37-.95-.38-1.33,0-.06.06-.23.16.03-.01-.04.03-.09.07-.14.1s-.09.06-.14.08c-.08.04-.19.05.08-.03-.1.03-.2.07-.31.09-.21.05.15-.01.07,0-.04,0-.09,0-.14.01-.11,0-.21,0-.33,0-.17-.01.25.05.09.01-.06-.01-.11-.02-.16-.03-.1-.03-.2-.05-.3-.09-.08-.03-.23-.12.05.03-.05-.03-.1-.05-.15-.07-.09-.05-.17-.1-.25-.15-.04-.03-.09-.07-.14-.1.26.17.09.08.03.02-.08-.07-.14-.14-.21-.21-.04-.04-.07-.09-.11-.13.21.24.08.11.03.03-.05-.09-.09-.17-.14-.26-.07-.14.09.27.02.04-.02-.05-.03-.11-.04-.16-.01-.04-.02-.08-.03-.13-.04-.16.03.3,0,.05,0-.12,0-.23,0-.35.03-.24-.13-.54-.28-.7-.16-.17-.43-.3-.66-.29-.55.03-.88.43-.94.99h0Z"/>
  <path d="M859.2,276.8v1.98c0,.25.11.52.28.7s.43.3.66.29.49-.09.66-.29.28-.43.28-.7v-1.98c0-.25-.11-.52-.28-.7s-.43-.3-.66-.29-.49.09-.66.29-.28.43-.28.7h0Z"/>
  <path d="M862.52,274.64l.63,1.32c.06.11.14.21.24.28.09.09.19.14.32.18.13.04.25.05.38.02.13,0,.24-.05.35-.12.2-.14.38-.34.43-.59l.03-.26c0-.18-.04-.34-.13-.5l-.63-1.32c-.06-.11-.14-.21-.24-.28-.09-.09-.19-.14-.32-.18-.13-.04-.25-.05-.38-.02-.13,0-.24.05-.35.12-.2.14-.38.34-.43.59l-.03.26c0,.18.04.34.13.5h0Z"/>
  <path d="M860.25,285.13c-.53,1.53.75,2.95,2.09,3.29.75.18,1.5.1,2.17-.3s1.2-1.02,1.6-1.71c.43-.74.72-1.57.99-2.38.16-.49-.18-1.1-.66-1.22-.53-.13-.98.16-1.16.69-.06.2-.13.4-.2.59-.03.07-.05.14-.08.22-.02.04-.14.36-.05.13-.14.34-.29.66-.47.97-.05.09-.11.17-.16.26-.03.04-.06.09-.08.13.08-.1.08-.11.01-.02-.11.13-.22.26-.34.38-.04.03-.07.07-.11.1.1-.08.11-.09.02-.02-.06.04-.12.09-.18.13-.05.03-.2.15-.26.14.13-.06.15-.07.06-.03-.03.01-.06.02-.09.03-.04.01-.18.02-.2.05.15-.02.18-.03.07-.01h-.3c-.11-.01-.08,0,.07.01-.04,0-.08-.01-.12-.03-.03,0-.39-.14-.41-.13.13.06.15.07.06.02-.04-.02-.07-.04-.11-.06-.06-.03-.12-.08-.18-.11-.19-.13.11.12-.01-.01-.05-.05-.11-.11-.16-.16-.13-.14.1.17.01.02-.03-.05-.07-.16-.11-.2.06.15.07.18.04.08-.01-.03-.02-.07-.03-.11-.05-.17,0,.24,0,.05v-.11c0-.11,0-.08-.01.09.03-.04.04-.18.06-.23.17-.49-.19-1.1-.66-1.22-.53-.13-.98.17-1.16.69h.03Z"/>
  <path d="M901.8,270.88v1.32c0,.25.11.52.28.7.09.1.19.16.3.2.11.06.23.09.36.09.24-.01.49-.09.66-.29s.28-.43.28-.7v-1.32c0-.25-.11-.52-.28-.7-.09-.1-.19-.16-.3-.2-.11-.06-.23-.09-.36-.09-.24.01-.49.09-.66.29s-.28.43-.28.7h0Z"/>
  <path d="M908.05,269.18l.64,1.97c.08.24.21.45.43.59.2.13.5.18.73.1s.44-.22.56-.45.18-.51.09-.76l-.64-1.97c-.08-.24-.21-.45-.43-.59-.2-.13-.5-.18-.73-.1s-.44.22-.56.45-.18.51-.09.76h0Z"/>
  <path d="M905.17,283.46c.56.49,1.18.75,1.9.81.64.05,1.28-.13,1.86-.4,1.17-.55,2.02-1.76,2.05-3.12.01-.51-.44-1.01-.94-.99s-.93.43-.94.99c0,.07-.01.14-.01.2,0-.26.03-.17,0-.07-.02.11-.06.22-.09.33-.06.17.09-.21.03-.06-.03.06-.06.12-.09.17-.03.04-.05.09-.08.13-.05.08-.19.21.01,0-.14.15-.28.3-.43.45.21-.21.07-.05,0,0-.04.03-.08.05-.12.08-.09.06-.19.11-.29.16-.16.09.21-.08.05-.02-.06.03-.12.05-.18.07-.1.03-.2.06-.3.09-.06.01-.11.02-.16.03.28-.07.14-.02.06-.01-.11,0-.22.01-.33,0-.06,0-.13-.01-.19-.01.08,0,.24.04.07,0-.11-.02-.21-.05-.31-.09-.09-.03-.15-.11.05.03-.05-.03-.11-.06-.17-.09-.04-.03-.08-.05-.12-.08-.21-.14.13.11,0,0-.38-.33-.96-.42-1.33,0-.32.36-.41,1.05,0,1.4h0Z"/>
  <path d="M941.26,280.1v2.63c0,.51.43,1.01.94.99s.94-.43.94-.99v-2.63c0-.51-.43-1.01-.94-.99s-.94.43-.94.99h0Z"/>
  <path d="M946.89,279.44v1.98c0,.25.11.52.28.7s.43.3.66.29.49-.09.66-.29.28-.43.28-.7v-1.98c0-.25-.11-.52-.28-.7s-.43-.3-.66-.29-.49.09-.66.29-.28.43-.28.7h0Z"/>
  <path d="M944.36,289.97c-.04.68.37,1.32.92,1.66.3.18.6.26.93.3.09.01.17.01.26,0,.16-.01.33-.03.48-.09.41-.15.73-.4.96-.79.13-.22.16-.52.09-.76-.06-.23-.23-.48-.43-.59-.22-.12-.48-.18-.73-.1s-.43.23-.56.45c-.02.03-.03.05-.05.08l.14-.2c-.04.05-.09.1-.14.14l.19-.15c-.05.04-.11.07-.16.1l.23-.1c-.08.03-.15.05-.23.07l.25-.03c-.1.01-.2.01-.3,0l.25.03c-.11-.01-.21-.05-.31-.09l.23.1c-.09-.04-.18-.09-.26-.16l.19.15c-.06-.05-.12-.11-.18-.18l.14.2c-.04-.06-.08-.12-.11-.18l.09.24c-.03-.07-.04-.14-.06-.21l.03.26c0-.05,0-.1,0-.15.01-.24-.11-.53-.28-.7s-.43-.3-.66-.29-.49.09-.66.29-.26.43-.28.7h.02Z"/>
  <path d="M569.16,175.37c4.35,3.11,6.64,8.37,8.78,13.23,2.66,6.05,5.44,12.05,8.34,17.97,1.47,3,2.98,5.99,4.51,8.96.73,1.4,1.43,2.84,2.22,4.21.62,1.07,1.4,2.16,2.49,2.73,2.29,1.2,4.45-.23,5.81-2.2.75-1.09,1.25-2.32,1.72-3.56.58-1.52,1.12-3.05,1.61-4.61,2.2-6.98,3.46-14.29,3.75-21.64l-1.75.5c3.56,4.86,7.13,9.71,10.69,14.57,1.69,2.3,3.36,4.63,5.08,6.91,1.58,2.11,3.27,4.17,5.29,5.83.94.78,2,1.65,3.26,1.58,1-.06,1.79-.73,2.32-1.59.58-.95.8-2.11,1.04-3.19.32-1.45.61-2.9.89-4.36,1.12-5.86,1.92-11.78,2.42-17.74.56-6.71.7-13.46.44-20.18-.05-1.26-1.93-1.27-1.88,0,.43,11.15-.25,22.34-2.07,33.33-.45,2.72-.96,5.42-1.55,8.11-.22,1-.36,2.15-.92,3.03-.71,1.12-1.7.36-2.5-.28-1.87-1.48-3.44-3.36-4.91-5.27-1.65-2.15-3.22-4.35-4.82-6.54-3.72-5.07-7.44-10.15-11.16-15.21-.55-.75-1.71-.55-1.75.5-.26,6.26-1.23,12.46-2.91,18.48-.8,2.86-1.68,5.79-2.9,8.49-.76,1.69-2.54,4.63-4.64,3.1-.95-.69-1.51-1.91-2.05-2.94-.73-1.39-1.45-2.78-2.17-4.17-1.45-2.84-2.88-5.69-4.28-8.55-2.76-5.66-5.41-11.38-7.94-17.15-2.31-5.25-4.82-10.7-9.5-14.05-1-.72-1.94.99-.95,1.71h.01Z"/>
  <path d="M665.48,176.44c-1.92,2.75-4.95,4.31-7,6.93-2.34,2.97-2.82,6.74-2.98,10.47-.19,4.36-.3,8.72-.45,13.08-.07,1.94-.3,3.96-.12,5.89.16,1.71.91,3.27,2.55,3.85,1.84.65,3.89-.13,5.67-.63,2.29-.63,4.58-1.27,6.88-1.9,1.17-.32.67-2.23-.5-1.9-1.89.53-3.79,1.05-5.68,1.57-1.57.43-3.26,1.13-4.9,1.12s-2.15-1.29-2.18-2.83c-.04-1.93.11-3.88.18-5.81.14-3.96.26-7.92.41-11.88.13-3.42.39-7.1,2.61-9.82s5.17-4.3,7.15-7.14c.71-1.03-.91-2.01-1.62-.99h0Z"/>
  <path d="M658.03,201.69c7.86-1.26,15.64-3.06,23.28-5.39,1.16-.36.66-2.26-.5-1.9-7.64,2.32-15.41,4.12-23.28,5.39-1.19.19-.68,2.09.5,1.9h0Z"/>
  <path d="M682.14,190.36c3.43,7.57,6.17,15.46,8.2,23.58.31,1.26,1.98.7,1.81-.53-.68-4.88-1.35-9.77-2.03-14.65-.34-2.44-.68-4.88-1.01-7.33s-.76-4.84-.97-7.27c-.16-1.93-.08-4.08,1.23-5.58,1.19-1.36,2.94-1.36,4.3-.27,3.22,2.57,1.68,7.65.09,10.74-1.8,3.5-4.86,6.74-8.82,7.08-1.19.1-1.22,2.05,0,1.98,8.08-.51,16.45,2.64,22.13,8.78,1.3,1.4,2.46,3.25,1.55,5.22s-2.86,2.82-4.75,3.15c-2.3.41-4.72.27-7.04.32-2.49.05-4.98.1-7.47.14-5.71.11-11.41.22-17.12.34-1.21.03-1.21,2,0,1.98,5.5-.11,11-.22,16.5-.33,2.75-.05,5.5-.11,8.25-.16,2.54-.05,5.15.07,7.65-.43,2.13-.43,4.12-1.55,5.33-3.5s1.09-4.21-.03-6.12-2.93-3.48-4.64-4.85-3.68-2.62-5.7-3.59c-4.58-2.2-9.62-3.25-14.66-2.93v1.98c4.12-.35,7.45-3.14,9.66-6.68s4.22-9.16,1.65-13.05c-1.08-1.63-2.85-2.9-4.8-2.85s-3.71,1.54-4.54,3.42c-1.01,2.32-.75,4.88-.42,7.33.38,2.82.78,5.63,1.17,8.45.89,6.41,1.77,12.8,2.66,19.21l1.81-.53c-2.07-8.28-4.89-16.33-8.39-24.05-.52-1.15-2.14-.14-1.62.99h0v.02Z"/>
  <path d="M732.77,210.32c.58-11.07,2.04-22.09,4.37-32.9.66-3.09,1.4-6.16,2.2-9.2l-1.72.24c7.13,12.59,10.23,27.07,12.33,41.41.6,4.1,1.13,8.22,1.64,12.32.07.53.38.98.94.99.46,0,1.01-.46.94-.99-1.84-14.69-3.73-29.63-8.99-43.48-1.48-3.88-3.21-7.66-5.24-11.25-.41-.73-1.5-.59-1.72.24-2.84,10.81-4.82,21.86-5.91,33.02-.31,3.2-.55,6.41-.72,9.62-.07,1.27,1.81,1.26,1.88,0h0Z"/>
  <path d="M758.98,174.76c0,12.49.01,24.98.02,37.47,0,.59.61,1.19,1.19.95,8.76-3.5,17.53-6.99,26.29-10.49,1.12-.45.63-2.36-.5-1.9-8.76,3.5-17.53,6.99-26.29,10.49l1.19.95c0-12.49-.01-24.98-.02-37.47,0-1.27-1.88-1.27-1.88,0h0Z"/>
  <path d="M779.03,185.3v44.11c0,1.27,1.88,1.27,1.88,0v-44.11c0-1.27-1.88-1.27-1.88,0h0Z"/>
  <path class="st3" d="M717.84,494.74c-2.54-3.12-5.22-6.39-6.43-10.36-.98-3.21-.9-7.18,1.17-9.92,1.16-1.53,2.84-2.4,4.58-2.98,2-.66,4.09-1.11,6.15-1.52,4.44-.9,8.95-1.41,13.47-1.56,7.15-.23,14.71.22,21.32,3.35,3.02,1.42,5.78,3.41,7.92,6.08,2.5,3.12,3.9,7.05,4.53,11.05,2.45,15.71-7.3,30.49-18.35,39.94-12.4,10.6-27.46,16.95-40.22,26.99-5.74,4.52-11.04,9.72-15.17,15.93-2.02,3.03-3.7,6.29-4.97,9.74-.64,1.73-1.17,3.51-1.56,5.32-.32,1.48-.43,3.09-.01,4.56.39,1.36,1.3,2.54,2.69,2.77.61.11,1.46-.43,1.16-1.22-6.41-16.43-18.41-29.41-31.23-40.58-13.54-11.8-28.36-22.04-40.69-35.33-6.08-6.54-11.63-13.83-15.2-22.23-3.28-7.74-4.77-16.79-2-24.94,2.34-6.89,7.55-13.23,14.3-15.52,3.64-1.23,7.43-1.07,11.05.2,4.03,1.43,7.6,4.05,10.97,6.73,6.78,5.39,13.49,10.94,19.8,16.93,6.31,5.99,12.07,12.39,16.69,19.79,1.14,1.82,2.2,3.71,3.19,5.63.57,1.12,2.2.13,1.62-.99-8.27-16.18-22.02-28.07-35.58-39.18-6.55-5.37-13.72-11.94-22.52-11.96-7.36-.03-13.89,4.74-17.96,10.92-2.12,3.21-3.66,6.92-4.37,10.76-.81,4.35-.6,8.87.24,13.19,1.77,9.05,6.43,17.26,11.91,24.37,11.42,14.84,26.51,25.81,40.69,37.49,13.39,11.03,26.66,23.31,34.68,39.37.95,1.92,1.83,3.87,2.61,5.87l1.16-1.22c-1.38-.23-1.6-1.88-1.58-3.12.01-1.68.56-3.38,1.05-4.96,1.1-3.59,2.73-6.99,4.7-10.14,4.05-6.48,9.52-11.93,15.41-16.54,13.08-10.28,28.52-16.76,41.13-27.78,11.28-9.86,20.6-25.01,18.23-41.03-.61-4.11-2.04-8.14-4.48-11.44-2.08-2.82-4.81-5.04-7.84-6.63-6.51-3.42-13.99-4.22-21.17-4.17-4.54.03-9.08.44-13.55,1.2-2.2.37-4.38.83-6.55,1.38-1.92.49-3.88,1.07-5.54,2.22-2.94,2.04-4.33,5.61-4.33,9.24,0,4.02,1.7,7.7,3.89,10.9,1.15,1.68,2.42,3.26,3.7,4.83.79.97,2.11-.43,1.33-1.4h0Z"/>
  <path class="st3" d="M813.37,519.09c.7,7.38,1.84,14.71,3.42,21.94.27,1.24,2.08.71,1.81-.53-1.54-7.06-2.66-14.21-3.35-21.42-.12-1.25-2-1.26-1.88,0h0Z"/>
  <path class="st3" d="M790.14,525.02c9.5-3.8,19.37-6.59,29.41-8.3,2.87-.49,5.76-.88,8.66-1.19,1.19-.13,1.2-2.1,0-1.98-10.25,1.09-20.39,3.25-30.22,6.5-2.81.93-5.59,1.95-8.35,3.05-1.12.45-.63,2.36.5,1.9h0Z"/>
  <path class="st3" d="M807.53,552.33c7.77.49,15.6-.88,22.79-4,1.1-.48.62-2.39-.5-1.9-7.06,3.06-14.67,4.41-22.29,3.94-1.21-.08-1.2,1.9,0,1.98h0Z"/>
  <path class="st3" d="M833.49,548.04c.04-5.73.07-11.46.11-17.18l-1.6.7c4.68,4.9,9.36,9.8,14.03,14.7.29.3.79.39,1.14.15,3.26-2.19,1.9-7.14,1.35-10.37-.85-4.91-1.85-9.79-2.99-14.63-.29-1.23-2.1-.71-1.81.53,1.01,4.33,1.92,8.68,2.71,13.05.34,1.94.8,3.9.93,5.87.09,1.34.06,3.05-1.13,3.85l1.14.15c-4.68-4.9-9.36-9.8-14.03-14.7-.58-.61-1.6-.16-1.6.7-.04,5.73-.07,11.46-.11,17.18,0,1.27,1.87,1.27,1.88,0h0Z"/>
  <path class="st3" d="M851.22,511.4c3.29,11.28,6.61,22.54,9.95,33.81.96,3.23,1.92,6.46,2.88,9.7.21.72,1.05.95,1.57.43,1.09-1.07,1.49-2.73.99-4.21-.41-1.19-2.22-.68-1.81.53.29.86.13,1.66-.51,2.28l1.57.43c-3.35-11.26-6.68-22.52-9.99-33.79-.95-3.23-1.9-6.47-2.84-9.71-.35-1.21-2.17-.7-1.81.53h0Z"/>
  <path class="st3" d="M844.72,537.71c5.33-1.35,10.58-3.05,15.71-5.1,1.12-.45.63-2.36-.5-1.9-5.13,2.05-10.37,3.75-15.71,5.1-1.18.3-.68,2.21.5,1.9h0Z"/>
  <path class="st3" d="M867.92,526.99l2.14,19.45c.34,3.12.54,6.31,1.06,9.41.43,2.54,2.2,4.16,4.68,4.09,2.91-.08,5.04-2.34,7.77-2.98,1.18-.28.68-2.18-.5-1.9-2.27.53-4.08,2.26-6.34,2.78-.85.2-1.88.22-2.65-.27-.94-.61-1.11-1.84-1.24-2.9-.69-5.87-1.3-11.76-1.94-17.64-.37-3.35-.74-6.7-1.11-10.05-.14-1.25-2.02-1.26-1.88,0h0Z"/>
  <path class="st3" d="M865.43,541.17c4.79-1.58,9.58-3.16,14.37-4.74,1.15-.38.66-2.28-.5-1.9-4.79,1.58-9.58,3.16-14.37,4.74-1.15.38-.66,2.28.5,1.9h0Z"/>
  <path class="st3" d="M868.72,529.71c1.66-.9,3.32-1.79,4.99-2.69.44-.24.6-.92.34-1.35-.29-.47-.81-.61-1.28-.36-1.66.9-3.32,1.79-4.99,2.69-.44.24-.6.92-.34,1.35.29.47.81.61,1.28.36h0Z"/>
  <path class="st3" d="M874.46,523.22c2.92,9.9,6.54,19.57,10.84,28.9,1.23,2.69,2.53,5.34,3.87,7.96.49.96,2.11.3,1.72-.76-2.27-6.08-4.99-11.95-7.91-17.71-1.47-2.89-2.98-5.75-4.5-8.62s-3.12-5.56-4.47-8.43c-.47-1-1.1-2.53-.47-3.6.6-1,1.84-.82,2.74-.46,2.14.86,3.76,3.12,4.79,5.19,1.1,2.2,1.65,4.7,1.61,7.18-.02,1.24-.19,2.47-.52,3.66-.34,1.25-1.25,2.62-.79,3.95.24.7.81,1.12,1.4,1.47.81.49,1.63.95,2.44,1.44,1.62.95,3.25,1.92,4.87,2.87,3.25,1.92,6.5,3.82,9.75,5.74,1.06.62,2-1.09.95-1.71-3.07-1.81-6.14-3.61-9.21-5.42-1.53-.9-3.07-1.81-4.6-2.71-.72-.43-1.45-.85-2.17-1.28-.46-.28-1.68-.69-1.66-1.34s.51-1.42.7-2.05.35-1.28.46-1.93c.23-1.32.31-2.66.23-4-.16-2.63-.89-5.23-2.15-7.51-1.27-2.28-3.05-4.42-5.39-5.4s-5.15-.19-5.52,2.71c-.18,1.41.3,2.8.87,4.06.67,1.45,1.48,2.85,2.23,4.26,1.62,3.03,3.24,6.07,4.84,9.12,3.56,6.83,6.97,13.76,9.67,21.01l1.72-.76c-5.94-11.61-10.8-23.8-14.52-36.39-.36-1.21-2.17-.69-1.81.53h0v.03Z"/>
  <path class="st3" d="M893.17,526.43c4.1,9.9,9.38,19.2,15.67,27.73.65.88,2.09-.28,1.48-1.2-4.79-7.25-9.38-14.7-12.83-22.77-1.69-3.95-3.13-8.08-4.07-12.3-.46-2.07-.77-4.31-.21-6.39s2.09-3.54,3.73-4.73c3.91-2.83,8.29-4.89,12.88-6.16,1.17-.32.67-2.23-.5-1.9-4.35,1.2-8.53,3.1-12.31,5.65-1.75,1.19-3.52,2.51-4.66,4.38s-1.43,4.15-1.25,6.32c.36,4.51,1.97,9.05,3.6,13.21s3.67,8.43,5.89,12.44c2.51,4.54,5.28,8.91,8.12,13.23l1.48-1.2c-6.19-8.39-11.35-17.6-15.38-27.33-.48-1.17-2.1-.16-1.62.99h0Z"/>
  <path class="st3" d="M901.36,531.85c2.69-1.37,5.38-2.74,8.07-4.11.46-.23.58-.92.34-1.35-.28-.49-.83-.59-1.28-.36-2.69,1.37-5.38,2.74-8.07,4.11-.46.23-.58.92-.34,1.35.28.49.83.59,1.28.36h0Z"/>
  <path class="st3" d="M920.23,550c-.66-7.25-3.78-13.79-6.45-20.4-2.72-6.75-5.17-13.65-6.78-20.8-.79-3.5-1.37-7.06-1.65-10.65-.17-2.2-.67-7.06,2.76-6.54,1.47.22,2.55,1.4,3.38,2.61,1.03,1.49,1.95,3.09,2.91,4.63,2.04,3.29,4.09,6.58,6.13,9.86,4.6,7.4,9.19,14.8,13.79,22.2.66,1.06,2.29.07,1.62-.99-4.32-6.94-8.63-13.88-12.94-20.82-2.15-3.47-4.32-6.94-6.47-10.41-1.01-1.63-2.01-3.29-3.05-4.9-.88-1.36-1.9-2.75-3.33-3.51-1.32-.7-2.91-.92-4.28-.24-1.23.61-2,1.87-2.3,3.23-.34,1.55-.22,3.17-.1,4.75.14,1.9.37,3.8.66,5.68,1.17,7.62,3.48,15,6.18,22.16,1.5,3.96,3.18,7.82,4.72,11.75s2.94,8.1,3.33,12.41c.11,1.25,1.99,1.26,1.88,0h0Z"/>
  <path class="st3" d="M915.49,533.85c5.93-6.25,14.7-7.7,21.91-11.69,2.07-1.14,4.01-2.51,5.73-4.16.9-.86-.44-2.25-1.33-1.4-6.19,5.94-14.93,7.29-22.09,11.49-2.02,1.19-3.92,2.62-5.56,4.35-.85.9.48,2.3,1.33,1.4h0Z"/>
  <path class="st3" d="M939.87,496.39c-.9,5.11-1.57,10.26-1.91,15.44-.29,4.32-.48,8.74.33,13.01.72,3.81,2.39,7.43,5.42,9.76s7.3,3.05,11.09,2.47c4.83-.74,9.14-3.48,13.02-6.43.97-.74.03-2.45-.95-1.71-5.93,4.5-14.19,9.07-21.33,4.59-6.53-4.1-6.19-13.64-5.79-20.57.31-5.39.98-10.74,1.91-16.04.22-1.24-1.59-1.78-1.81-.53h.01Z"/>
  <path class="st3" d="M961.33,499.98c.79,7.47,1.88,14.9,3.28,22.27.35,1.84.71,3.66,1.1,5.49.33,1.57.66,3.21,1.93,4.25,1.09.9,2.49,1.14,3.83,1.22,1.72.11,3.46.09,5.19.05,4.08-.1,8.14-.5,12.16-1.17,1.19-.2.68-2.1-.5-1.9-3.3.55-6.63.9-9.98,1.04-1.68.07-3.38.1-5.06.07-1.27-.02-2.74.07-3.93-.49-1.39-.66-1.57-2.34-1.86-3.74-.35-1.67-.69-3.34-1.01-5.02-.65-3.4-1.24-6.82-1.76-10.25-.6-3.92-1.1-7.86-1.52-11.81-.13-1.25-2.01-1.26-1.88,0h0Z"/>
  <path class="st3" d="M965.08,521.96c3.35-2.78,6.52-5.81,9.5-9.04.84-.92-.49-2.31-1.33-1.4-2.97,3.23-6.14,6.25-9.5,9.04-.4.33-.33,1.05,0,1.4.39.41.93.33,1.33,0h0Z"/>
  <path class="st3" d="M961.43,498.78c3.14-1.51,6.28-3.03,9.43-4.54.46-.22.58-.92.34-1.35-.28-.5-.82-.58-1.28-.36-3.14,1.51-6.28,3.03-9.43,4.54-.46.22-.58.92-.34,1.35.28.5.82.58,1.28.36h0Z"/>
  <path class="st3" d="M991.82,488.47c-1.11-1.34.68-3.07,1.64-3.82,1.6-1.25,3.58-1.87,5.45-2.53,3.81-1.34,8.06-2.5,12.08-1.56,2.04.48,3.85,1.51,5.35,3.05s2.73,3.52,3.91,5.42c2.37,3.84,4.86,8.05,5.32,12.72.41,4.14-.91,8.83-4.51,11.01l1.38.59c-.42-1.83,1.53-3,2.89-3.57,1.85-.78,3.93-.97,5.89-1.21,4.25-.5,8.55-.59,12.8-.07,8.05,1,16.16,4.67,20.59,12.14s4.32,16.62,1.76,24.63c-2.84,8.9-8.9,15.92-16.26,21.05-7.81,5.46-16.73,8.86-25.67,11.66-10.32,3.23-20.82,5.81-31.39,7.99-10.62,2.19-21.31,3.96-32.03,5.56-10.7,1.6-21.43,3.03-32.14,4.54-10.73,1.51-21.45,3.09-32.12,4.98-10.67,1.9-21.28,4.1-31.77,6.87-2.56.68-5.12,1.38-7.67,2.13-1.17.34-.67,2.24.5,1.9,10.75-3.14,21.66-5.64,32.63-7.74,10.99-2.11,22.05-3.82,33.13-5.41s22.19-3.06,33.28-4.67c11.02-1.6,22.02-3.34,32.95-5.5,10.96-2.15,21.85-4.72,32.57-7.95,9.33-2.81,18.68-6.12,26.99-11.51,7.81-5.07,14.46-11.99,17.98-21.01,3.19-8.19,3.82-17.84.19-25.99-3.66-8.21-11.34-13.15-19.57-14.97-4.28-.95-8.7-1.19-13.07-.93-2.19.13-4.37.38-6.55.72-1.99.32-4.01.8-5.68,2.05-1.53,1.15-2.51,2.81-2.05,4.83.14.63.87.9,1.38.59,3.7-2.25,5.47-6.75,5.51-11.11.04-5.34-2.54-10.24-5.19-14.61-2.61-4.29-5.41-8.62-10.36-9.99-4.65-1.28-9.61.01-14.03,1.62-2.35.85-4.72,1.69-6.55,3.54-1.61,1.63-2.52,3.98-.89,5.94.8.96,2.12-.44,1.33-1.4h.01Z"/>
</svg>